<svg width="199" height="49" viewBox="0 0 199 49" fill="none" xmlns="http://www.w3.org/2000/svg">
<path d="M4.24113 10.5529C2.21134 5.50236 5.92923 0 11.3716 0H72.5212C75.7066 0 78.5618 1.96542 79.6994 4.94122L92.5548 38.5687C94.4786 43.601 90.7633 49 85.3766 49H24.8863C21.7486 49 18.926 47.0922 17.7558 44.1804L4.24113 10.5529Z" fill="#FF381D"/>
<path d="M73.5326 7.56616V40.3529H66.7783L53.6072 18.375V40.3529H46.8528V7.56616H53.6072L66.8008 29.5666V7.56616H73.5326Z" fill="white"/>
<path d="M28.3008 7.56616V40.3529H21.5464V7.56616H28.3008ZM41.3593 21.5726V26.8419H26.4546V21.5726H41.3593ZM42.9353 7.56616V12.858H26.4546V7.56616H42.9353Z" fill="white"/>
<path d="M165.696 21.0097V43.2353H158.131V14.8096H165.25L165.696 21.0097ZM174.259 14.6257L174.128 21.6402C173.76 21.5876 173.314 21.5438 172.788 21.5088C172.28 21.4563 171.816 21.43 171.396 21.43C170.328 21.43 169.4 21.5701 168.612 21.8503C167.841 22.1131 167.193 22.5071 166.668 23.0326C166.16 23.558 165.775 24.1973 165.512 24.9504C165.267 25.7035 165.127 26.5617 165.092 27.525L163.568 27.0521C163.568 25.2131 163.752 23.523 164.12 21.9817C164.488 20.4229 165.022 19.0656 165.722 17.9096C166.44 16.7537 167.316 15.8605 168.349 15.2299C169.382 14.5994 170.564 14.2842 171.895 14.2842C172.315 14.2842 172.744 14.3192 173.182 14.3892C173.62 14.4418 173.979 14.5206 174.259 14.6257Z" fill="black"/>
<path d="M144.682 36.8251V24.1622C144.682 23.2515 144.534 22.4721 144.236 21.8241C143.938 21.1585 143.474 20.6419 142.844 20.2741C142.231 19.9063 141.434 19.7224 140.453 19.7224C139.613 19.7224 138.886 19.8712 138.273 20.169C137.66 20.4492 137.188 20.8608 136.855 21.4037C136.522 21.9292 136.356 22.5509 136.356 23.269H128.791C128.791 22.0605 129.071 20.9133 129.631 19.8274C130.192 18.7416 131.006 17.787 132.074 16.9639C133.143 16.1232 134.412 15.4664 135.883 14.9935C137.371 14.5206 139.035 14.2842 140.874 14.2842C143.08 14.2842 145.041 14.652 146.758 15.3876C148.474 16.1232 149.822 17.2266 150.803 18.6978C151.801 20.169 152.3 22.008 152.3 24.2148V36.3784C152.3 37.9372 152.396 39.2158 152.589 40.2141C152.781 41.1949 153.062 42.0531 153.429 42.7887V43.2353H145.786C145.418 42.4647 145.138 41.5014 144.945 40.3454C144.77 39.172 144.682 37.9985 144.682 36.8251ZM145.681 25.9224L145.733 30.2047H141.504C140.506 30.2047 139.639 30.3185 138.904 30.5462C138.168 30.7739 137.564 31.0979 137.091 31.5182C136.619 31.9211 136.268 32.3939 136.041 32.9369C135.83 33.4798 135.725 34.0753 135.725 34.7233C135.725 35.3714 135.874 35.9581 136.172 36.4835C136.47 36.9914 136.899 37.3943 137.459 37.692C138.019 37.9722 138.676 38.1124 139.429 38.1124C140.567 38.1124 141.557 37.8847 142.397 37.4293C143.238 36.9739 143.886 36.4135 144.341 35.7479C144.814 35.0824 145.059 34.4519 145.076 33.8564L147.073 37.0615C146.793 37.7796 146.407 38.5239 145.917 39.2946C145.444 40.0652 144.84 40.792 144.105 41.4751C143.369 42.1407 142.485 42.6924 141.452 43.1302C140.418 43.5506 139.193 43.7607 137.774 43.7607C135.971 43.7607 134.333 43.4017 132.862 42.6836C131.409 41.948 130.253 40.9409 129.395 39.6624C128.555 38.3663 128.134 36.8951 128.134 35.2488C128.134 33.7601 128.414 32.4377 128.975 31.2818C129.535 30.1258 130.358 29.1538 131.444 28.3657C132.547 27.56 133.922 26.9558 135.568 26.5529C137.214 26.1326 139.123 25.9224 141.294 25.9224H145.681Z" fill="black"/>
<path d="M116.787 30.5462H124.641C124.483 33.1208 123.774 35.4064 122.513 37.403C121.27 39.3997 119.527 40.9584 117.286 42.0793C115.062 43.2003 112.383 43.7607 109.248 43.7607C106.797 43.7607 104.599 43.3404 102.655 42.4997C100.711 41.6415 99.0479 40.4155 97.6645 38.8217C96.2986 37.2279 95.2567 35.3013 94.5387 33.042C93.8208 30.7826 93.4618 28.2518 93.4618 25.4495V22.7961C93.4618 19.9938 93.8295 17.463 94.565 15.2037C95.318 12.9268 96.3862 10.9915 97.7696 9.39768C99.1705 7.80387 100.843 6.57787 102.787 5.71967C104.73 4.86147 106.902 4.43237 109.301 4.43237C112.488 4.43237 115.176 5.01034 117.365 6.16629C119.571 7.32223 121.279 8.91603 122.487 10.9477C123.713 12.9793 124.448 15.2912 124.693 17.8834H116.813C116.726 16.3421 116.419 15.0373 115.894 13.9689C115.368 12.883 114.572 12.0686 113.504 11.5257C112.453 10.9652 111.052 10.685 109.301 10.685C107.987 10.685 106.84 10.9302 105.86 11.4206C104.879 11.911 104.056 12.6553 103.391 13.6536C102.725 14.652 102.226 15.913 101.894 17.4367C101.578 18.943 101.421 20.7119 101.421 22.7436V25.4495C101.421 27.4286 101.57 29.1713 101.867 30.6775C102.165 32.1663 102.62 33.4273 103.233 34.4606C103.864 35.4765 104.669 36.2471 105.65 36.7725C106.648 37.2804 107.847 37.5344 109.248 37.5344C110.894 37.5344 112.251 37.2717 113.32 36.7462C114.388 36.2208 115.202 35.4414 115.762 34.4081C116.34 33.3747 116.682 32.0874 116.787 30.5462Z" fill="black"/>
</svg>
